<?xml version="1.0" encoding="utf-8"?>
<!-- Generator: Adobe Illustrator 18.0.0, SVG Export Plug-In . SVG Version: 6.00 Build 0)  -->
<!DOCTYPE svg PUBLIC "-//W3C//DTD SVG 1.1//EN" "http://www.w3.org/Graphics/SVG/1.1/DTD/svg11.dtd">
<svg version="1.1" id="Layer_1" xmlns="http://www.w3.org/2000/svg" xmlns:xlink="http://www.w3.org/1999/xlink" x="0px" y="0px"
	 width="37.5px" height="54.7px" viewBox="0 0 37.5 54.7" enable-background="new 0 0 37.5 54.7" xml:space="preserve">
<g>
	<g>
		<path fill="#E2D7C7" d="M37.5,54.7H0V43.5c0-6,2.6-11.8,7-15.9l1.6-1.4c0.5-0.5,0.6-1.2,0.2-1.8L5,18.9c0-0.1-0.1-0.1-0.2-0.1
			c-0.6,0-1.7,0.1-2.4,0.8L0,21.8v-3.3c0-4.9,1.9-9.6,5.4-13.1S13.5,0,18.5,0h0.4c10.2,0,18.5,8.3,18.5,18.5v36.2H37.5z M2.9,51.8
			h31.7V18.6C34.6,10,27.6,3,19,3h-0.4c-4.2,0-8.1,1.6-11.1,4.6C5.1,10,3.6,13,3.1,16.3c0.6-0.1,1.2-0.2,1.7-0.2c1,0,2,0.5,2.6,1.3
			l3.8,5.5c1.2,1.7,0.9,4.1-0.6,5.5L9,29.8c-3.9,3.5-6.1,8.5-6.1,13.7L2.9,51.8L2.9,51.8z"/>
	</g>
	<g>
		<path fill="#E2D7C7" d="M21.9,43.7h-5.7V15.3h1.1c2.1,0,3.7-1.7,3.7-3.7c0-2.1-1.7-3.7-3.7-3.7c-0.6,0-1.1-0.5-1.1-1.1
			s0.5-1.1,1.1-1.1c3.3,0,6,2.7,6,6c0,2.9-2.1,5.4-4.9,5.9v23.9H20l3.9-17.9h0.9c0.1,0,8,0.2,8,12.1c0,0.6-0.5,1.1-1.1,1.1
			s-1.2-0.5-1.2-1.1c0-7.3-3.2-9.2-4.9-9.6L21.9,43.7z"/>
	</g>
	<g>
		<polygon fill="#E2D7C7" points="7.4,13.2 11.3,10.2 15.2,10.2 12.3,12.7 		"/>
	</g>
</g>
</svg>
