<?xml version="1.0" encoding="utf-8"?>
<!-- Generator: Adobe Illustrator 18.0.0, SVG Export Plug-In . SVG Version: 6.00 Build 0)  -->
<!DOCTYPE svg PUBLIC "-//W3C//DTD SVG 1.1//EN" "http://www.w3.org/Graphics/SVG/1.1/DTD/svg11.dtd">
<svg version="1.1" id="Layer_1" xmlns="http://www.w3.org/2000/svg" xmlns:xlink="http://www.w3.org/1999/xlink" x="0px" y="0px"
	 width="35.9px" height="61px" viewBox="0 0 35.9 61" enable-background="new 0 0 35.9 61" xml:space="preserve">
<g>
	<g>
		<polygon fill="#E2D7C7" points="18,28.2 0,24.1 0,30.4 0,36.7 15.5,33.1 11.7,61 18,61 24.3,61 20.5,33.1 35.9,36.7 35.9,30.4 
			35.9,24.1 		"/>
	</g>
	<g>
		<path fill="#E2D7C7" d="M18,31.5l-1.2-1C16.4,30.1,6,21.5,6,12.1C6,5.4,11.4,0,18.1,0s12.1,5.4,12.1,12.1c0,9.4-10.4,18-10.8,18.4
			L18,31.5z M18,4c-4.5,0-8.2,3.7-8.2,8.2c0,5.4,5.1,11.3,8.1,14.2c2.5-2.4,8.2-8.4,8.2-14.2C26.1,7.6,22.5,4,18,4z"/>
	</g>
</g>
</svg>
