<?xml version="1.0" encoding="utf-8"?>
<!-- Generator: Adobe Illustrator 18.0.0, SVG Export Plug-In . SVG Version: 6.00 Build 0)  -->
<!DOCTYPE svg PUBLIC "-//W3C//DTD SVG 1.1//EN" "http://www.w3.org/Graphics/SVG/1.1/DTD/svg11.dtd">
<svg version="1.1" id="Layer_1" xmlns="http://www.w3.org/2000/svg" xmlns:xlink="http://www.w3.org/1999/xlink" x="0px" y="0px"
	 width="51px" height="60.9px" viewBox="0 0 51 60.9" enable-background="new 0 0 51 60.9" xml:space="preserve">
<g>
	<path fill="#E2D7C7" d="M44.8,15.2h-7.2v-1.1c2.3-1.4,5.3-4.5,3.7-8.9c-0.7-2-2.1-3.5-4-4.4c-2.7-1.2-5.8-0.9-7.1-0.4
		c-2.1,0.8-3.8,4-4,4.3L22,12.6h3.6l1,1.8h2.8V15h-4.9l-7.2,7.9L17.2,23h-0.1L0,7l1.4,9.8l14.3,13.4c1.7,1.6,4.4,1.7,6.1,0.1
		l4.2-3.6v15.1l-9.3-8.5c-0.9-0.9-2.3-1.2-3.6-0.8c-1.6,0.6-2.6,2.3-2.2,4L14,50.6L2.2,56.5v4.4h46.1v-3.2l-7.7-3.4V42h-1.8v-6.1
		l1-1.6l6.1,2.8c1.2,0.6,2.6,0.4,3.7-0.4c1.2-0.9,1.7-2.5,1.2-4L44.8,15.2z M28.4,46.6h9.9V54H16.9l-1.4-1.4l12-6h0.2H28.4z
		 M13.1,36.1c-0.1-0.5,0.2-1.1,0.7-1.3c0.4-0.1,0.8,0,1.2,0.3l10.7,9.7l-9.6,4.8L13.1,36.1z M44.3,58.6H4.6V58l8.7-4.3l2.7,2.7h23.3
		L44.3,58.6z M48.2,34.8c-0.4,0.3-0.8,0.3-1.2,0.1l-14.4-6.7l0.5-1l14.4,5.9l-8.8-13.9v7.7l-6.6-2.7l-2.7,5.1l8.4,3.9l-1.2,1.9v9
		h-8.1V21.6l-8.1,7c-0.9,0.7-2.1,0.7-3-0.1L3.7,15.7l-0.3-2.3l12.2,11.4c0.5,0.5,1.2,0.7,1.8,0.7c0.7,0,1.3-0.3,1.8-0.8l6.5-7.1h6.2
		v-5.4h-3.8l-1-1.8h-1L28.5,6c0.6-1.1,1.9-2.9,2.8-3.2c0.8-0.3,3.2-0.6,5.3,0.3c1.3,0.6,2.3,1.6,2.8,3c1.5,4-2.9,6.2-3.1,6.3
		l-0.7,0.3v4.9h7.9L49,33.5C48.7,34,48.6,34.5,48.2,34.8z"/>
</g>
</svg>
