<?xml version="1.0" encoding="utf-8"?>
<!-- Generator: Adobe Illustrator 18.0.0, SVG Export Plug-In . SVG Version: 6.00 Build 0)  -->
<!DOCTYPE svg PUBLIC "-//W3C//DTD SVG 1.1//EN" "http://www.w3.org/Graphics/SVG/1.1/DTD/svg11.dtd">
<svg version="1.1" id="Layer_1" xmlns="http://www.w3.org/2000/svg" xmlns:xlink="http://www.w3.org/1999/xlink" x="0px" y="0px"
	 width="32px" height="32px" viewBox="0 0 32 32" enable-background="new 0 0 32 32" xml:space="preserve">
<g>
	<circle fill="#282827" cx="16" cy="16" r="16"/>
</g>
<path fill="#FFFFFF" d="M22.2,15.4c0,0-1.3-0.7-2.2-5c-0.5-2.7-3.1-0.2-4-0.2s-3.5-2.4-4,0.2c-0.9,4.3-2.2,5-2.2,5"/>
<path fill="#FFFFFF" d="M10.2,15.3c-2-0.1-2.2-0.6-3.3-0.8s-1,0.9-1,0.9c0,4.2,4.5,7.5,10.1,7.5h0c5.6,0,10.1-3.4,10.1-7.5
	c0,0,0-1.2-1-0.9c-1,0.3-1.3,0.8-3.3,0.8"/>
<path fill="none" stroke="#282827" stroke-width="2" stroke-miterlimit="10" d="M22.2,12.6c0,2.5-2.8,4.6-6.2,4.6s-6.2-2.1-6.2-4.6"
	/>
</svg>
