<?xml version="1.0" encoding="utf-8"?>
<!-- Generator: Adobe Illustrator 18.0.0, SVG Export Plug-In . SVG Version: 6.00 Build 0)  -->
<!DOCTYPE svg PUBLIC "-//W3C//DTD SVG 1.1//EN" "http://www.w3.org/Graphics/SVG/1.1/DTD/svg11.dtd">
<svg version="1.1" id="Layer_1" xmlns="http://www.w3.org/2000/svg" xmlns:xlink="http://www.w3.org/1999/xlink" x="0px" y="0px"
	 width="1924px" height="442.9px" viewBox="0 0 1924 442.9" enable-background="new 0 0 1924 442.9" xml:space="preserve">
<rect x="2" y="2" fill="#FFFFFF" width="1920" height="438.9"/>
<path opacity="0.25" fill="#F2F0EE" d="M9,434.9l416.4,1.3c191.7-9.5,409.3-33.7,493.6-93.3c164-116-217.8-90.9-145.9-121.4
	c63.9-27.2,207.9-58.6,777.7-94.7c-315.4,3.1-745.4,15.9-929.8,60.2c-308,74-11,62,122,108S9,434.9,9,434.9z"/>
<path opacity="0.25" fill="#F2F0EE" d="M1370.8,221.4c0,0-285.8,56.6-157.8,60s268-12.6,202,9.4s-43.6,80,95.2,68s104.8-18,12.8-30
	s181.9-40,66-62s-366,16-262-10S1530.6,194,1370.8,221.4z"/>
</svg>
