<?xml version="1.0" encoding="utf-8"?>
<!-- Generator: Adobe Illustrator 18.0.0, SVG Export Plug-In . SVG Version: 6.00 Build 0)  -->
<!DOCTYPE svg PUBLIC "-//W3C//DTD SVG 1.1//EN" "http://www.w3.org/Graphics/SVG/1.1/DTD/svg11.dtd">
<svg version="1.1" id="Layer_1" xmlns="http://www.w3.org/2000/svg" xmlns:xlink="http://www.w3.org/1999/xlink" x="0px" y="0px"
	 width="879.5px" height="65.1px" viewBox="0 0 879.5 65.1" enable-background="new 0 0 879.5 65.1" xml:space="preserve">
<g>
	<path fill="#E2D7C7" d="M572.5,16.7h-7.2v-1.1c2.3-1.4,5.3-4.5,3.7-8.9c-0.7-2-2.1-3.5-4-4.4c-2.7-1.2-5.8-0.9-7.1-0.4
		c-2.1,0.8-3.8,4-4,4.3l-4.2,7.9h3.6l1,1.8h2.8v0.6h-4.9l-7.2,7.9c0,0-0.1,0.1-0.1,0.1c0,0-0.1,0-0.1,0l-17.1-16l1.4,9.8l14.3,13.4
		c1.7,1.6,4.4,1.7,6.1,0.1l4.2-3.6v15.1l-9.3-8.5c-0.9-0.9-2.3-1.2-3.6-0.8c-1.6,0.6-2.6,2.3-2.2,4l3.1,14.1L529.9,58v4.4H576v-3.2
		l-7.7-3.4V43.5h-1.8v-6.1l1-1.6l6.1,2.8c1.2,0.6,2.6,0.4,3.7-0.4c1.2-0.9,1.7-2.5,1.2-4L572.5,16.7z M556.1,48.1h9.9v7.4h-21.4
		l-1.4-1.4l12-6h0.2H556.1z M540.8,37.6c-0.1-0.5,0.2-1.1,0.7-1.3c0.4-0.1,0.8,0,1.2,0.3l10.7,9.7l-9.6,4.8L540.8,37.6z M572,60.1
		h-39.7v-0.6l8.7-4.3l2.7,2.7h23.3L572,60.1z M575.9,36.3c-0.4,0.3-0.8,0.3-1.2,0.1l-14.4-6.7l0.5-1l14.4,5.9l-8.8-13.9v7.7
		l-6.6-2.7l-2.7,5.1l8.4,3.9l-1.2,1.9v9h-8.1V23.1l-8.1,7c-0.9,0.7-2.1,0.7-3-0.1l-13.7-12.8l-0.3-2.3l12.2,11.4
		c0.5,0.5,1.2,0.7,1.8,0.7c0.7,0,1.3-0.3,1.8-0.8l6.5-7.1h6.2v-5.4h-3.8l-1-1.8h-1l2.4-4.4c0.6-1.1,1.9-2.9,2.8-3.2
		c0.8-0.3,3.2-0.6,5.3,0.3c1.3,0.6,2.3,1.6,2.8,3c1.5,4-2.9,6.2-3.1,6.3l-0.7,0.3v4.9h7.9l5.5,15.9C576.4,35.5,576.3,36,575.9,36.3z
		"/>
</g>
<g>
	<path fill="#E2D7C7" d="M642.2,62.4l-9.6-4.5V35.9h3.4V2.4h-15.2l-6.1,12.9h2.9l0.2,2h4.7v4.5l-7.3,7.8l4.6,4.6l-1.3,11.2L610,34.2
		l-6.7,3.3l4.9,19L596,62.4H642.2z M633.7,4.8v28.7h-2.2h-1.2h-3.2V14.5h1.7V8.3h-4.5l-2.4-2.4l0.5-1.1H633.7z M620.1,14.9l-0.3-2
		h-1.2l2.2-4.8l2.5,2.5h3.1v1.4h-1.7v2.8H620.1z M606.1,38.8l3.2-1.6l11,14.3l2.1-18.1l-3.8-3.8l6.1-6.5v12.8h5.6v23.6l1.3,0.6
		h-25.3l4.6-2.3L606.1,38.8z"/>
</g>
<g>
	<g>
		<path fill="#E2D7C7" d="M692.3,62.2h-37.5V51c0-6,2.6-11.8,7-15.9l1.6-1.4c0.5-0.5,0.6-1.2,0.2-1.8l-3.8-5.5
			c0-0.1-0.1-0.1-0.2-0.1c-0.6,0-1.7,0.1-2.4,0.8l-2.4,2.2l0-3.3c0-4.9,1.9-9.6,5.4-13.1c3.5-3.5,8.1-5.4,13.1-5.4h0.4
			c10.2,0,18.5,8.3,18.5,18.5V62.2z M657.7,59.3h31.7V26.1c0-8.6-7-15.6-15.6-15.6h-0.4c-4.2,0-8.1,1.6-11.1,4.6
			c-2.4,2.4-3.9,5.4-4.4,8.7c0.6-0.1,1.2-0.2,1.7-0.2c1,0,2,0.5,2.6,1.3l3.8,5.5c1.2,1.7,0.9,4.1-0.6,5.5l-1.6,1.4
			c-3.9,3.5-6.1,8.5-6.1,13.7V59.3z"/>
	</g>
	<g>
		<path fill="#E2D7C7" d="M676.7,51.2H671V22.8h1.1c2.1,0,3.7-1.7,3.7-3.7c0-2.1-1.7-3.7-3.7-3.7c-0.6,0-1.1-0.5-1.1-1.1
			c0-0.6,0.5-1.1,1.1-1.1c3.3,0,6,2.7,6,6c0,2.9-2.1,5.4-4.9,5.9v23.9h1.6l3.9-17.9l0.9,0c0.1,0,8,0.2,8,12.1c0,0.6-0.5,1.1-1.1,1.1
			c-0.6,0-1.2-0.5-1.2-1.1c0-7.3-3.2-9.2-4.9-9.6L676.7,51.2z"/>
	</g>
	<g>
		<polygon fill="#E2D7C7" points="662.2,20.7 666.1,17.7 670,17.7 667.1,20.2 		"/>
	</g>
</g>
<g>
	<g>
		<path fill="#E2D7C7" d="M747.9,60.1h-32.4c-1.4,0-2.6-1.2-2.6-2.6c0-1.4,1.2-2.6,2.6-2.6h32.4c3.7,0,6.7-3,6.7-6.7
			c0-3.7-3-6.7-6.7-6.7h-25.4c-6.6,0-11.9-5.3-11.9-11.9s5.3-11.9,11.9-11.9h34.7c1.4,0,2.6,1.2,2.6,2.6c0,1.4-1.2,2.6-2.6,2.6
			h-34.7c-3.7,0-6.7,3-6.7,6.7c0,3.7,3,6.7,6.7,6.7h25.4c6.6,0,11.9,5.3,11.9,11.9C759.8,54.8,754.5,60.1,747.9,60.1z"/>
	</g>
	<g>
		<path fill="#E2D7C7" d="M726,57.5c0,2.9-0.7,5.2-4.4,5.2c-3.8,0-9.3-2.3-9.3-5.2c0-2.9,5.5-5.2,9.3-5.2
			C725.4,52.3,726,54.6,726,57.5z"/>
	</g>
</g>
<g>
	<g>
		<path fill="#E2D7C7" d="M117.9,63.3h-10.7c-1.4,0-2.6-0.8-3.2-2c-0.6-1.2-0.5-2.6,0.4-3.7L133,19.9l4.3-1.1l6.3-9.1h12.6l1.9,3.5
			c1.4,0.6,5,2.5,5.9,6.7l0.8,3.5l-3-2c-1.9-1.3-5.3-3-6.8-2.4c-1.2,0.4-2.5,4.5-3,7.8l0,0.3l-0.2,0.3l-17.2,27.2
			c-1,1.5-2.9,2.3-4.6,1.8c-1.6-0.5-2.7-1.8-2.9-3.4l-6.2,8.9C120.1,62.8,119.1,63.3,117.9,63.3z M106.7,59.4
			c-0.2,0.3-0.1,0.6-0.1,0.7c0.1,0.1,0.2,0.4,0.6,0.4h10.7c0.2,0,0.4-0.1,0.6-0.3l13-18.7l-1.6,10.7c-0.1,0.6,0.3,1.2,0.9,1.4
			c0.5,0.2,1.1-0.1,1.4-0.5l17-27c0.4-2.4,1.6-8.7,4.9-9.8c1.2-0.4,2.6-0.3,4,0.1c-0.7-0.4-1.3-0.6-1.3-0.6l-0.6-0.2l-1.6-3h-9.4
			l-6,8.7l-4.4,1.1L106.7,59.4z"/>
	</g>
	<g>
		<path fill="#E2D7C7" d="M154.8,62.8h-12.5V37.3c0-0.8,0.6-1.4,1.4-1.4c0.8,0,1.4,0.6,1.4,1.4v22.6h9.6c0.8,0,1.4,0.6,1.4,1.4
			C156.2,62.1,155.6,62.8,154.8,62.8z"/>
	</g>
	<g>
		<path fill="#E2D7C7" d="M144.9,62.8h-12.5v-9.5c0-0.8,0.6-1.4,1.4-1.4c0.8,0,1.4,0.6,1.4,1.4v6.6h9.6c0.8,0,1.4,0.6,1.4,1.4
			C146.3,62.1,145.7,62.8,144.9,62.8z"/>
	</g>
	<g>
		<path fill="#E2D7C7" d="M107.2,63.3c-0.4,0-0.8-0.2-1.1-0.5c-0.5-0.6-0.5-1.5,0.1-2l32.6-29.3c0.5-0.5,0.8-1.1,0.8-1.8
			c0-0.8,0.6-1.4,1.4-1.4s1.4,0.6,1.4,1.4c0,1.5-0.6,2.9-1.8,3.9L108.2,63C107.9,63.2,107.5,63.3,107.2,63.3z"/>
	</g>
</g>
<g>
	<g>
		<g>
			<path fill="#E2D7C7" d="M796.9,39.7c-15.4,0-24.7-11.7-25.1-12.2l-1-1.2l1-1.2c0.4-0.5,9.7-12.2,25.1-12.2s24.7,11.7,25.1,12.2
				l1,1.2l-1,1.2C821.6,28.1,812.3,39.7,796.9,39.7z M776.1,26.3c2.7,2.8,10.2,9.4,20.8,9.4c10.7,0,18.1-6.6,20.8-9.4
				c-2.7-2.8-10.2-9.4-20.8-9.4C786.3,17,778.8,23.5,776.1,26.3z"/>
		</g>
		<g>
			<path fill="#E2D7C7" d="M803.6,26.4c0,3.7-3,6.6-6.6,6.6c-3.7,0-6.6-3-6.6-6.6c0-3.7,3-6.6,6.6-6.6
				C800.6,19.7,803.6,22.7,803.6,26.4z"/>
		</g>
	</g>
	<g>
		<g>
			<path fill="#E2D7C7" d="M820.4,18.5c-0.5,0-1.1-0.2-1.5-0.6c-0.1-0.1-8.6-9-22-9c-13.5,0-21.9,8.9-22,9c-0.7,0.8-2,0.9-2.8,0.1
				c-0.8-0.7-0.9-2-0.1-2.8c0.4-0.4,9.7-10.3,24.9-10.3c15.3,0,24.6,9.8,24.9,10.3c0.7,0.8,0.7,2.1-0.1,2.8
				C821.4,18.3,820.9,18.5,820.4,18.5z"/>
		</g>
	</g>
	<g>
		<path fill="#E2D7C7" d="M813.6,61.4c-1.6,0-3.5-0.3-5.6-1c-13.4-4.6-13.5-22-13.5-22.7c0-1.1,0.9-2,2-2c1.1,0,2,0.9,2,2l0,0
			c0,0.2,0.2,15.3,10.8,18.9c4.1,1.4,7.6,0.9,10-1.4c2.4-2.3,3.2-5.8,2.6-7.9c-0.5-1.9-1.9-3.3-3.8-3.8c-1.9-0.6-4-0.2-5.5,1.1
			c-1.5,1.2-1.7,3.1-1,4.2c0.7,1.2,2.4,1.4,4.6,0.5c1-0.4,2.2,0.1,2.6,1.1c0.4,1-0.1,2.2-1.1,2.6c-4.9,2-8.1,0.2-9.5-2.2
			c-1.8-2.9-0.9-6.9,1.9-9.3c2.6-2.1,6-2.8,9.2-1.8c3.1,1,5.6,3.4,6.5,6.5c1.1,3.8-0.4,8.8-3.6,11.9
			C820.6,59.5,817.8,61.4,813.6,61.4z"/>
	</g>
	<g>
		<path fill="#E2D7C7" d="M793.6,37.5l-2.2,7l3.3,10.2c0.1,0.2,0.3,0.4,0.6,0.4l0,0c0.3,0,0.6-0.3,0.6-0.6V37.7L793.6,37.5z"/>
	</g>
	<g>
		<path fill="#E2D7C7" d="M818.2,24c0,0,7.9,1.1,14.5-2.1c0,0-3.3,6.5-14.5,6.8l2.2-2.4L818.2,24z"/>
	</g>
</g>
<g>
	<g>
		<polygon fill="#E2D7C7" points="317.9,62.2 294.1,62.2 306,41.5 317.9,20.9 329.8,41.5 341.7,62.2 		"/>
	</g>
	<g>
		<polygon fill="#E2D7C7" points="303.7,35.3 302.1,32.5 285,2.9 267.9,32.5 250.7,62.2 285,62.2 288.1,62.2 300.6,40.6 		"/>
	</g>
</g>
<g>
	<g>
		<polygon fill="#E2D7C7" points="359.7,28.4 341.7,24.3 341.7,30.6 341.7,36.9 357.2,33.3 353.4,61.2 359.7,61.2 366,61.2 
			362.2,33.3 377.6,36.9 377.6,30.6 377.6,24.3 		"/>
	</g>
	<g>
		<path fill="#E2D7C7" d="M359.7,31.7l-1.2-1c-0.4-0.4-10.8-9-10.8-18.4c0-6.7,5.4-12.1,12.1-12.1s12.1,5.4,12.1,12.1
			c0,9.4-10.4,18-10.8,18.4L359.7,31.7z M359.7,4.2c-4.5,0-8.2,3.7-8.2,8.2c0,5.4,5.1,11.3,8.1,14.2c2.5-2.4,8.2-8.4,8.2-14.2
			C367.8,7.8,364.2,4.2,359.7,4.2z"/>
	</g>
</g>
<g>
	<path fill="#E2D7C7" d="M222.8,16.4l-5.3-15.1c-0.6-1.8-3.1-1.8-3.8-0.1l-5.3,13.2l-12.7,2.8c-2.6,0.6-4.6,2.7-5,5.3h-8.5
		c-1.1,0-1.9,1.1-1.6,2.2l4.2,5.7c1.2,1.7,3.1,2.6,5.2,2.6h15.4v29.6h36.2C241.5,62.9,245,34.2,222.8,16.4z M196.7,22.5H193l6.3-3.3
		L196.7,22.5z M230.1,49.3c-0.7,0-1.3-0.6-1.3-1.3c0-8-3.6-10.1-5.3-10.6L219.2,57h-6.3V25.7h1.3c2.3,0,4.1-1.8,4.1-4.1
		s-1.8-4.1-4.1-4.1c-0.7,0-1.3-0.6-1.3-1.3c0-0.7,0.6-1.3,1.3-1.3c3.7,0,6.6,3,6.6,6.6c0,3.2-2.3,5.9-5.4,6.5v26.3h1.7l4.3-19.8l1,0
		c0.1,0,8.9,0.2,8.9,13.3C231.4,48.7,230.8,49.3,230.1,49.3z"/>
</g>
<g>
	<g>
		<path fill="#E2D7C7" d="M74.5,65.1H57.8c-2.6,0-4.8-2.1-4.8-4.8v-3.6c0-2.8-0.8-5.6-2.2-8l-5-8.4c-1.5-2.5-2.3-5.5-2.3-8.4
			c0-8.7,7-15.7,15.6-15.8v-5.2c0-1.5-1.2-2.7-2.7-2.7h-8.7V0h36.7v8.2h-8.7c-1.5,0-2.7,1.2-2.7,2.7v5.2c8.6,0.1,15.6,7.1,15.6,15.8
			c0,3-0.8,5.9-2.3,8.4l-5,8.4c-1.4,2.4-2.2,5.2-2.2,8v3.6C79.3,62.9,77.1,65.1,74.5,65.1z M51.6,4.4h4.8c3.6,0,6.5,2.9,6.5,6.5v5.4
			c0,2-1.6,3.7-3.6,3.7c-6.6,0-12,5.4-12,12c0,2.3,0.6,4.5,1.8,6.5l5,8.4c1.8,3,2.8,6.5,2.8,10v3.6c0,0.5,0.4,1,0.9,1h16.7
			c0.5,0,1-0.4,1-1v-3.6c0-3.5,0.9-7,2.7-10l5-8.4c1.2-2,1.8-4.2,1.8-6.5c0-6.6-5.4-12-12-12c-2,0-3.6-1.6-3.6-3.7v-5.4
			c0-3.6,2.9-6.5,6.5-6.5h4.8V3.8h-29V4.4z"/>
	</g>
</g>
<g>
	<path fill="#E2D7C7" d="M501.6,46.5c0,0,0.4,3.3,2.2,5.5c0.4,0.4,0.1,1-0.5,1l0,0c0,0-0.1,0-0.1,0c-0.6-0.1-5.3-1.2-5.9-6.5H501.6z
		"/>
	<path fill="#E2D7C7" d="M505,19c4.5-2,2-5.1,2-5.1c-5.7,0-5.8,8.3-5.8,8.3v0c0-4.6-3.7-8.3-8.3-8.3h-7.2
		c-15.8,0-28.6,12.8-28.6,28.6v11.1h10.3h15.3l-2.6-11.9c-1.6,0.5-4.8,2.3-4.8,9.5c0,0.6-0.4,1.2-1,1.2c-0.7,0.1-1.3-0.5-1.3-1.1
		c0-11.9,7.9-12,8-12l0.9,0l3.1,14.4h2.3V33.3c-2.8-0.5-4.9-3-4.9-5.9c0-3.3,2.6-6,5.9-6c0.6,0,1.2,0.4,1.2,1.1
		c0.1,0.7-0.5,1.3-1.2,1.2c-1.2,0-2.3,0.4-2.9,1.4c-1.9,3,0.2,6.1,3,6.1h1.1v31.2h6.3V46.5h5.7c1.1,0,2-1,1.9-2.1l-0.6-6.5h3.2
		l-2.5-9.5C503.6,28.4,501.9,20.3,505,19z M496.7,30.1l-1.9-1.8h4.8l1.9,1.8H496.7z"/>
</g>
<g>
	<path fill="#E2D7C7" d="M430.7,29.9l6.7,12.1h-4.2v4.9c0,4.1-3.4,7.5-7.5,7.5h-1.6l-2.6,7.3h-13.3l4.2-8.9l-5.7-10.3
		C406.7,42.4,416.5,32,430.7,29.9z"/>
	<path fill="#E2D7C7" d="M406,39.1c0,0,10.1-9.7,24.7-12.1l-3.4-11c0,0-18.2,6-27.6,17L406,39.1z"/>
	<path fill="#E2D7C7" d="M397.5,30.8l-6-4.6c0,0,0-25.8,32.3-22.1l2.5,8.5C426.3,12.6,408.3,17.4,397.5,30.8z"/>
</g>
<g>
	<path fill="#E2D7C7" d="M862.2,63.9c-1,0-1.8-0.8-1.8-1.8V32.8c-6.2-0.9-10.9-6.2-10.9-12.6c0-7,5.7-12.7,12.7-12.7
		c6.4,0,11.7,4.7,12.6,10.9h3c1,0,1.8,0.8,1.8,1.8c0,1-0.8,1.8-1.8,1.8h-6.4v-1.8c0-5-4.1-9.1-9.1-9.1c-5,0-9.1,4.1-9.1,9.1
		s4.1,9.1,9.1,9.1h1.8v32.8C864,63.1,863.2,63.9,862.2,63.9z"/>
</g>
<g>
	<path fill="#E2D7C7" d="M26,63.9c-1,0-1.8-0.8-1.8-1.8V24.8c0-5.7-4.6-10.3-10.3-10.3c-5.7,0-10.3,4.6-10.3,10.3v37.2
		c0,1-0.8,1.8-1.8,1.8c-1,0-1.8-0.8-1.8-1.8V24.8C0,17.2,6.2,11,13.9,11c7.6,0,13.9,6.2,13.9,13.9v37.2C27.7,63.1,26.9,63.9,26,63.9
		z"/>
</g>
</svg>
