<svg xmlns="http://www.w3.org/2000/svg" width="61.2" height="53.6" xml:space="preserve"><path fill="#E2D7C7" d="M14.3 53.6H3.6c-1.4 0-2.6-.8-3.2-2-.6-1.2-.5-2.6.4-3.7l28.6-37.7 4.3-1.1L40 0h12.6l1.9 3.5c1.4.6 5 2.5 5.9 6.7l.8 3.5-3-2c-1.9-1.3-5.3-3-6.8-2.4-1.2.4-2.5 4.5-3 7.8v.3l-.2.3L31 44.9c-1 1.5-2.9 2.3-4.6 1.8-1.6-.5-2.7-1.8-2.9-3.4l-6.2 8.9c-.8.9-1.8 1.4-3 1.4zM3.1 49.7c-.2.3-.1.6-.1.7.1.1.2.4.6.4h10.7c.2 0 .4-.1.6-.3l13-18.7-1.6 10.7c-.1.6.3 1.2.9 1.4.5.2 1.1-.1 1.4-.5l17-27c.4-2.4 1.6-8.7 4.9-9.8 1.2-.4 2.6-.3 4 .1-.7-.4-1.3-.6-1.3-.6l-.6-.2-1.6-3h-9.4l-6 8.7-4.4 1.1-28.1 37z"/><path fill="#E2D7C7" d="M51.2 53.1H38.7V27.6c0-.8.6-1.4 1.4-1.4.8 0 1.4.6 1.4 1.4v22.6h9.6c.8 0 1.4.6 1.4 1.4.1.8-.5 1.5-1.3 1.5z"/><path fill="#E2D7C7" d="M41.3 53.1H28.8v-9.5c0-.8.6-1.4 1.4-1.4.8 0 1.4.6 1.4 1.4v6.6h9.6c.8 0 1.4.6 1.4 1.4.1.8-.5 1.5-1.3 1.5zM3.6 53.6c-.4 0-.8-.2-1.1-.5-.5-.6-.5-1.5.1-2l32.6-29.3c.5-.5.8-1.1.8-1.8 0-.8.6-1.4 1.4-1.4s1.4.6 1.4 1.4c0 1.5-.6 2.9-1.8 3.9L4.6 53.3c-.3.2-.7.3-1 .3z"/></svg>