<svg xmlns="http://www.w3.org/2000/svg" width="50.6" height="48.5" xml:space="preserve"><g fill="#E2D7C7"><path d="M44.5 32.6s.4 3.3 2.2 5.5c.4.4.1 1-.5 1h-.1c-.6-.1-5.3-1.2-5.9-6.5h4.3z"/><path d="M47.9 5.1c4.5-2 2-5.1 2-5.1-5.7 0-5.8 8.3-5.8 8.3 0-4.6-3.7-8.3-8.3-8.3h-7.2C12.8 0 0 12.8 0 28.6v11.1h25.6L23 27.8c-1.6.5-4.8 2.3-4.8 9.5 0 .6-.4 1.2-1 1.2-.7.1-1.3-.5-1.3-1.1 0-11.9 7.9-12 8-12h.9l3.1 14.4h2.3V19.4c-2.8-.5-4.9-3-4.9-5.9 0-3.3 2.6-6 5.9-6 .6 0 1.2.4 1.2 1.1.1.7-.5 1.3-1.2 1.2-1.2 0-2.3.4-2.9 1.4-1.9 3 .2 6.1 3 6.1h1.1v31.2h6.3V32.6h5.7c1.1 0 2-1 1.9-2.1l-.6-6.5h3.2l-2.5-9.5c.1 0-1.6-8.1 1.5-9.4zm-8.3 11.1-1.9-1.8h4.8l1.9 1.8h-4.8z"/></g></svg>