<svg xmlns="http://www.w3.org/2000/svg" width="51" height="60.9" xml:space="preserve"><path fill="#E2D7C7" d="M44.8 15.2h-7.2v-1.1c2.3-1.4 5.3-4.5 3.7-8.9-.7-2-2.1-3.5-4-4.4-2.7-1.2-5.8-.9-7.1-.4-2.1.8-3.8 4-4 4.3L22 12.6h3.6l1 1.8h2.8v.6h-4.9l-7.2 7.9-.1.1h-.1L0 7l1.4 9.8 14.3 13.4c1.7 1.6 4.4 1.7 6.1.1l4.2-3.6v15.1l-9.3-8.5c-.9-.9-2.3-1.2-3.6-.8-1.6.6-2.6 2.3-2.2 4L14 50.6 2.2 56.5v4.4h46.1v-3.2l-7.7-3.4V42h-1.8v-6.1l1-1.6 6.1 2.8c1.2.6 2.6.4 3.7-.4 1.2-.9 1.7-2.5 1.2-4l-6-17.5zM28.4 46.6h9.9V54H16.9l-1.4-1.4 12-6H28.4zM13.1 36.1c-.1-.5.2-1.1.7-1.3.4-.1.8 0 1.2.3l10.7 9.7-9.6 4.8-3-13.5zm31.2 22.5H4.6V58l8.7-4.3 2.7 2.7h23.3l5 2.2zm3.9-23.8c-.4.3-.8.3-1.2.1l-14.4-6.7.5-1 14.4 5.9-8.8-13.9v7.7l-6.6-2.7-2.7 5.1 8.4 3.9-1.2 1.9v9h-8.1V21.6l-8.1 7c-.9.7-2.1.7-3-.1L3.7 15.7l-.3-2.3 12.2 11.4c.5.5 1.2.7 1.8.7.7 0 1.3-.3 1.8-.8l6.5-7.1h6.2v-5.4h-3.8l-1-1.8h-1L28.5 6c.6-1.1 1.9-2.9 2.8-3.2.8-.3 3.2-.6 5.3.3 1.3.6 2.3 1.6 2.8 3 1.5 4-2.9 6.2-3.1 6.3l-.7.3v4.9h7.9L49 33.5c-.3.5-.4 1-.8 1.3z"/></svg>