<?xml version="1.0" encoding="utf-8"?>
<!-- Generator: Adobe Illustrator 18.0.0, SVG Export Plug-In . SVG Version: 6.00 Build 0)  -->
<!DOCTYPE svg PUBLIC "-//W3C//DTD SVG 1.1//EN" "http://www.w3.org/Graphics/SVG/1.1/DTD/svg11.dtd">
<svg version="1.1" id="Layer_1" xmlns="http://www.w3.org/2000/svg" xmlns:xlink="http://www.w3.org/1999/xlink" x="0px" y="0px"
	 width="46.2px" height="60px" viewBox="0 0 46.2 60" enable-background="new 0 0 46.2 60" xml:space="preserve">
<g>
	<path fill="#E2D7C7" d="M46.2,60l-9.6-4.5v-22H40V0H24.8l-6.1,12.9h2.9l0.2,2h4.7v4.5l-7.3,7.8l4.6,4.6L22.5,43L14,31.8l-6.7,3.3
		l4.9,19L0,60H46.2z M37.7,2.4v28.7h-2.2h-1.2h-3.2v-19h1.7V5.9h-4.5l-2.4-2.4l0.5-1.1H37.7z M24.1,12.5l-0.3-2h-1.2l2.2-4.8
		l2.5,2.5h3.1v1.4h-1.7v2.8h-4.6V12.5z M10.1,36.4l3.2-1.6l11,14.3L26.4,31l-3.8-3.8l6.1-6.5v12.8h5.6v23.6l1.3,0.6H10.3l4.6-2.3
		L10.1,36.4z"/>
</g>
</svg>
