<?xml version="1.0" encoding="utf-8"?>
<!-- Generator: Adobe Illustrator 18.0.0, SVG Export Plug-In . SVG Version: 6.00 Build 0)  -->
<!DOCTYPE svg PUBLIC "-//W3C//DTD SVG 1.1//EN" "http://www.w3.org/Graphics/SVG/1.1/DTD/svg11.dtd">
<svg version="1.1" id="Layer_1" xmlns="http://www.w3.org/2000/svg" xmlns:xlink="http://www.w3.org/1999/xlink" x="0px" y="0px"
	 width="49.2px" height="45px" viewBox="0 0 49.2 45" enable-background="new 0 0 49.2 45" xml:space="preserve">
<g>
	<g>
		<path fill="#E2D7C7" d="M37.3,42.4H4.9c-1.4,0-2.6-1.2-2.6-2.6c0-1.4,1.2-2.6,2.6-2.6h32.4c3.7,0,6.7-3,6.7-6.7s-3-6.7-6.7-6.7
			H11.9C5.3,23.8,0,18.5,0,11.9S5.3,0,11.9,0h34.7c1.4,0,2.6,1.2,2.6,2.6S48,5.2,46.6,5.2H11.9c-3.7,0-6.7,3-6.7,6.7s3,6.7,6.7,6.7
			h25.4c6.6,0,11.9,5.3,11.9,11.9C49.2,37.1,43.9,42.4,37.3,42.4z"/>
	</g>
	<g>
		<path fill="#E2D7C7" d="M15.4,39.8c0,2.9-0.7,5.2-4.4,5.2c-3.8,0-9.3-2.3-9.3-5.2s5.5-5.2,9.3-5.2C14.8,34.6,15.4,36.9,15.4,39.8z
			"/>
	</g>
</g>
</svg>
