<?xml version="1.0" encoding="utf-8"?>
<!-- Generator: Adobe Illustrator 18.0.0, SVG Export Plug-In . SVG Version: 6.00 Build 0)  -->
<!DOCTYPE svg PUBLIC "-//W3C//DTD SVG 1.1//EN" "http://www.w3.org/Graphics/SVG/1.1/DTD/svg11.dtd">
<svg version="1.1" id="Layer_1" xmlns="http://www.w3.org/2000/svg" xmlns:xlink="http://www.w3.org/1999/xlink" x="0px" y="0px"
	 width="61.9px" height="56.5px" viewBox="0 0 61.9 56.5" enable-background="new 0 0 61.9 56.5" xml:space="preserve">
<g>
	<g>
		<g>
			<path fill="#E2D7C7" d="M26.1,34.8C10.7,34.8,1.4,23.1,1,22.6l-1-1.2l1-1.2C1.4,19.7,10.7,8,26.1,8s24.7,11.7,25.1,12.2l1,1.2
				l-1,1.2C50.8,23.2,41.5,34.8,26.1,34.8z M5.3,21.4c2.7,2.8,10.2,9.4,20.8,9.4c10.7,0,18.1-6.6,20.8-9.4
				C44.2,18.6,36.7,12,26.1,12C15.5,12.1,8,18.6,5.3,21.4z"/>
		</g>
		<g>
			<path fill="#E2D7C7" d="M32.8,21.5c0,3.7-3,6.6-6.6,6.6c-3.7,0-6.6-3-6.6-6.6c0-3.7,3-6.6,6.6-6.6C29.8,14.8,32.8,17.8,32.8,21.5
				z"/>
		</g>
	</g>
	<g>
		<g>
			<path fill="#E2D7C7" d="M49.6,13.6c-0.5,0-1.1-0.2-1.5-0.6c-0.1-0.1-8.6-9-22-9c-13.5,0-21.9,8.9-22,9c-0.7,0.8-2,0.9-2.8,0.1
				c-0.8-0.7-0.9-2-0.1-2.8C1.6,9.9,10.9,0,26.1,0C41.4,0,50.7,9.8,51,10.3c0.7,0.8,0.7,2.1-0.1,2.8C50.6,13.4,50.1,13.6,49.6,13.6z
				"/>
		</g>
	</g>
	<g>
		<path fill="#E2D7C7" d="M42.8,56.5c-1.6,0-3.5-0.3-5.6-1c-13.4-4.6-13.5-22-13.5-22.7c0-1.1,0.9-2,2-2s2,0.9,2,2l0,0
			c0,0.2,0.2,15.3,10.8,18.9c4.1,1.4,7.6,0.9,10-1.4c2.4-2.3,3.2-5.8,2.6-7.9c-0.5-1.9-1.9-3.3-3.8-3.8c-1.9-0.6-4-0.2-5.5,1.1
			c-1.5,1.2-1.7,3.1-1,4.2c0.7,1.2,2.4,1.4,4.6,0.5c1-0.4,2.2,0.1,2.6,1.1c0.4,1-0.1,2.2-1.1,2.6c-4.9,2-8.1,0.2-9.5-2.2
			c-1.8-2.9-0.9-6.9,1.9-9.3c2.6-2.1,6-2.8,9.2-1.8c3.1,1,5.6,3.4,6.5,6.5c1.1,3.8-0.4,8.8-3.6,11.9C49.8,54.6,47,56.5,42.8,56.5z"
			/>
	</g>
	<g>
		<path fill="#E2D7C7" d="M22.8,32.6l-2.2,7l3.3,10.2c0.1,0.2,0.3,0.4,0.6,0.4l0,0c0.3,0,0.6-0.3,0.6-0.6V32.8L22.8,32.6z"/>
	</g>
	<g>
		<path fill="#E2D7C7" d="M47.4,19.1c0,0,7.9,1.1,14.5-2.1c0,0-3.3,6.5-14.5,6.8l2.2-2.4L47.4,19.1z"/>
	</g>
</g>
</svg>
