<?xml version="1.0" encoding="utf-8"?>
<!-- Generator: Adobe Illustrator 18.0.0, SVG Export Plug-In . SVG Version: 6.00 Build 0)  -->
<!DOCTYPE svg PUBLIC "-//W3C//DTD SVG 1.1//EN" "http://www.w3.org/Graphics/SVG/1.1/DTD/svg11.dtd">
<svg version="1.1" id="Layer_1" xmlns="http://www.w3.org/2000/svg" xmlns:xlink="http://www.w3.org/1999/xlink" x="0px" y="0px"
	 width="30.1px" height="56.4px" viewBox="0 0 30.1 56.4" enable-background="new 0 0 30.1 56.4" xml:space="preserve">
<g>
	<path fill="#E2D7C7" d="M12.7,56.4c-1,0-1.8-0.8-1.8-1.8V25.3C4.7,24.4,0,19.1,0,12.7C0,5.7,5.7,0,12.7,0c6.4,0,11.7,4.7,12.6,10.9
		h3c1,0,1.8,0.8,1.8,1.8s-0.8,1.8-1.8,1.8h-6.4v-1.8c0-5-4.1-9.1-9.1-9.1s-9.1,4.1-9.1,9.1s4.1,9.1,9.1,9.1h1.8v32.8
		C14.5,55.6,13.7,56.4,12.7,56.4z"/>
</g>
</svg>
