<?xml version="1.0" encoding="utf-8"?>
<!-- Generator: Adobe Illustrator 18.0.0, SVG Export Plug-In . SVG Version: 6.00 Build 0)  -->
<!DOCTYPE svg PUBLIC "-//W3C//DTD SVG 1.1//EN" "http://www.w3.org/Graphics/SVG/1.1/DTD/svg11.dtd">
<svg version="1.1" id="Layer_1" xmlns="http://www.w3.org/2000/svg" xmlns:xlink="http://www.w3.org/1999/xlink" x="0px" y="0px"
	 width="61.2px" height="53.6px" viewBox="0 0 61.2 53.6" enable-background="new 0 0 61.2 53.6" xml:space="preserve">
<g>
	<g>
		<path fill="#E2D7C7" d="M14.3,53.6H3.6c-1.4,0-2.6-0.8-3.2-2c-0.6-1.2-0.5-2.6,0.4-3.7l28.6-37.7l4.3-1.1L40,0h12.6l1.9,3.5
			c1.4,0.6,5,2.5,5.9,6.7l0.8,3.5l-3-2c-1.9-1.3-5.3-3-6.8-2.4c-1.2,0.4-2.5,4.5-3,7.8v0.3l-0.2,0.3L31,44.9c-1,1.5-2.9,2.3-4.6,1.8
			c-1.6-0.5-2.7-1.8-2.9-3.4l-6.2,8.9C16.5,53.1,15.5,53.6,14.3,53.6z M3.1,49.7C2.9,50,3,50.3,3,50.4c0.1,0.1,0.2,0.4,0.6,0.4h10.7
			c0.2,0,0.4-0.1,0.6-0.3l13-18.7l-1.6,10.7c-0.1,0.6,0.3,1.2,0.9,1.4c0.5,0.2,1.1-0.1,1.4-0.5l17-27c0.4-2.4,1.6-8.7,4.9-9.8
			c1.2-0.4,2.6-0.3,4,0.1c-0.7-0.4-1.3-0.6-1.3-0.6l-0.6-0.2l-1.6-3h-9.4l-6,8.7l-4.4,1.1L3.1,49.7z"/>
	</g>
	<g>
		<path fill="#E2D7C7" d="M51.2,53.1H38.7V27.6c0-0.8,0.6-1.4,1.4-1.4c0.8,0,1.4,0.6,1.4,1.4v22.6h9.6c0.8,0,1.4,0.6,1.4,1.4
			C52.6,52.4,52,53.1,51.2,53.1z"/>
	</g>
	<g>
		<path fill="#E2D7C7" d="M41.3,53.1H28.8v-9.5c0-0.8,0.6-1.4,1.4-1.4c0.8,0,1.4,0.6,1.4,1.4v6.6h9.6c0.8,0,1.4,0.6,1.4,1.4
			C42.7,52.4,42.1,53.1,41.3,53.1z"/>
	</g>
	<g>
		<path fill="#E2D7C7" d="M3.6,53.6c-0.4,0-0.8-0.2-1.1-0.5c-0.5-0.6-0.5-1.5,0.1-2l32.6-29.3c0.5-0.5,0.8-1.1,0.8-1.8
			c0-0.8,0.6-1.4,1.4-1.4s1.4,0.6,1.4,1.4c0,1.5-0.6,2.9-1.8,3.9L4.6,53.3C4.3,53.5,3.9,53.6,3.6,53.6z"/>
	</g>
</g>
</svg>
