<?xml version="1.0" encoding="utf-8"?>
<!-- Generator: Adobe Illustrator 18.0.0, SVG Export Plug-In . SVG Version: 6.00 Build 0)  -->
<!DOCTYPE svg PUBLIC "-//W3C//DTD SVG 1.1//EN" "http://www.w3.org/Graphics/SVG/1.1/DTD/svg11.dtd">
<svg version="1.1" id="Layer_1" xmlns="http://www.w3.org/2000/svg" xmlns:xlink="http://www.w3.org/1999/xlink" x="0px" y="0px"
	 width="61.2px" height="62.7px" viewBox="0 0 61.2 62.7" enable-background="new 0 0 61.2 62.7" xml:space="preserve">
<g>
	<path fill="#E2D7C7" d="M42.3,16.5L37,1.4c-0.6-1.8-3.1-1.8-3.8-0.1l-5.3,13.2l-12.7,2.8c-2.6,0.6-4.6,2.7-5,5.3H1.7
		c-1.1,0-1.9,1.1-1.6,2.2l4.2,5.7c1.2,1.7,3.1,2.6,5.2,2.6h15.4v29.6h36.2C61,63,64.5,34.3,42.3,16.5z M16.2,22.6h-3.7l6.3-3.3
		L16.2,22.6z M49.6,49.4c-0.7,0-1.3-0.6-1.3-1.3c0-8-3.6-10.1-5.3-10.6l-4.3,19.6h-6.3V25.8h1.3c2.3,0,4.1-1.8,4.1-4.1
		s-1.8-4.1-4.1-4.1c-0.7,0-1.3-0.6-1.3-1.3c0-0.7,0.6-1.3,1.3-1.3c3.7,0,6.6,3,6.6,6.6c0,3.2-2.3,5.9-5.4,6.5v26.3h1.7l4.3-19.8h1
		c0.1,0,8.9,0.2,8.9,13.3C50.9,48.8,50.3,49.4,49.6,49.4z"/>
</g>
</svg>
