<?xml version="1.0" encoding="utf-8"?>
<!-- Generator: Adobe Illustrator 18.0.0, SVG Export Plug-In . SVG Version: 6.00 Build 0)  -->
<!DOCTYPE svg PUBLIC "-//W3C//DTD SVG 1.1//EN" "http://www.w3.org/Graphics/SVG/1.1/DTD/svg11.dtd">
<svg version="1.1" id="Layer_1" xmlns="http://www.w3.org/2000/svg" xmlns:xlink="http://www.w3.org/1999/xlink" x="0px" y="0px"
	 width="45.9px" height="58px" viewBox="0 0 45.9 58" enable-background="new 0 0 45.9 58" xml:space="preserve">
<g>
	<path fill="#E2D7C7" d="M39.2,26.2l6.7,12.1h-4.2v4.9c0,4.1-3.4,7.5-7.5,7.5h-1.6L30,58H16.7l4.2-8.9l-5.7-10.3
		C15.2,38.7,25,28.3,39.2,26.2z"/>
	<path fill="#E2D7C7" d="M14.5,35.4c0,0,10.1-9.7,24.7-12.1l-3.4-11c0,0-18.2,6-27.6,17L14.5,35.4z"/>
	<path fill="#E2D7C7" d="M6,27.1l-6-4.6c0,0,0-25.8,32.3-22.1l2.5,8.5C34.8,8.9,16.8,13.7,6,27.1z"/>
</g>
</svg>
