<?xml version="1.0" encoding="utf-8"?>
<!-- Generator: Adobe Illustrator 18.0.0, SVG Export Plug-In . SVG Version: 6.00 Build 0)  -->
<!DOCTYPE svg PUBLIC "-//W3C//DTD SVG 1.1//EN" "http://www.w3.org/Graphics/SVG/1.1/DTD/svg11.dtd">
<svg version="1.1" id="Layer_1" xmlns="http://www.w3.org/2000/svg" xmlns:xlink="http://www.w3.org/1999/xlink" x="0px" y="0px"
	 width="50.6px" height="48.5px" viewBox="0 0 50.6 48.5" enable-background="new 0 0 50.6 48.5" xml:space="preserve">
<g>
	<path fill="#E2D7C7" d="M44.5,32.6c0,0,0.4,3.3,2.2,5.5c0.4,0.4,0.1,1-0.5,1l0,0h-0.1c-0.6-0.1-5.3-1.2-5.9-6.5H44.5z"/>
	<path fill="#E2D7C7" d="M47.9,5.1c4.5-2,2-5.1,2-5.1c-5.7,0-5.8,8.3-5.8,8.3l0,0c0-4.6-3.7-8.3-8.3-8.3h-7.2C12.8,0,0,12.8,0,28.6
		v11.1h10.3h15.3L23,27.8c-1.6,0.5-4.8,2.3-4.8,9.5c0,0.6-0.4,1.2-1,1.2c-0.7,0.1-1.3-0.5-1.3-1.1c0-11.9,7.9-12,8-12h0.9l3.1,14.4
		h2.3V19.4c-2.8-0.5-4.9-3-4.9-5.9c0-3.3,2.6-6,5.9-6c0.6,0,1.2,0.4,1.2,1.1c0.1,0.7-0.5,1.3-1.2,1.2c-1.2,0-2.3,0.4-2.9,1.4
		c-1.9,3,0.2,6.1,3,6.1h1.1v31.2h6.3V32.6h5.7c1.1,0,2-1,1.9-2.1L45.7,24h3.2l-2.5-9.5C46.5,14.5,44.8,6.4,47.9,5.1z M39.6,16.2
		l-1.9-1.8h4.8l1.9,1.8H39.6z"/>
</g>
</svg>
