<svg xmlns="http://www.w3.org/2000/svg" width="37.5" height="54.7" xml:space="preserve"><path fill="#E2D7C7" d="M37.5 54.7H0V43.5c0-6 2.6-11.8 7-15.9l1.6-1.4c.5-.5.6-1.2.2-1.8L5 18.9c0-.1-.1-.1-.2-.1-.6 0-1.7.1-2.4.8L0 21.8v-3.3c0-4.9 1.9-9.6 5.4-13.1S13.5 0 18.5 0h.4c10.2 0 18.5 8.3 18.5 18.5v36.2h.1zM2.9 51.8h31.7V18.6C34.6 10 27.6 3 19 3h-.4c-4.2 0-8.1 1.6-11.1 4.6C5.1 10 3.6 13 3.1 16.3c.6-.1 1.2-.2 1.7-.2 1 0 2 .5 2.6 1.3l3.8 5.5c1.2 1.7.9 4.1-.6 5.5L9 29.8c-3.9 3.5-6.1 8.5-6.1 13.7v8.3z"/><path fill="#E2D7C7" d="M21.9 43.7h-5.7V15.3h1.1c2.1 0 3.7-1.7 3.7-3.7 0-2.1-1.7-3.7-3.7-3.7-.6 0-1.1-.5-1.1-1.1s.5-1.1 1.1-1.1c3.3 0 6 2.7 6 6 0 2.9-2.1 5.4-4.9 5.9v23.9H20l3.9-17.9h.9c.1 0 8 .2 8 12.1 0 .6-.5 1.1-1.1 1.1s-1.2-.5-1.2-1.1c0-7.3-3.2-9.2-4.9-9.6l-3.7 17.6zM7.4 13.2l3.9-3h3.9l-2.9 2.5z"/></svg>