<svg xmlns="http://www.w3.org/2000/svg" width="61.9" height="56.5" xml:space="preserve"><path fill="#E2D7C7" d="M26.1 34.8C10.7 34.8 1.4 23.1 1 22.6l-1-1.2 1-1.2C1.4 19.7 10.7 8 26.1 8s24.7 11.7 25.1 12.2l1 1.2-1 1.2c-.4.6-9.7 12.2-25.1 12.2zM5.3 21.4c2.7 2.8 10.2 9.4 20.8 9.4 10.7 0 18.1-6.6 20.8-9.4-2.7-2.8-10.2-9.4-20.8-9.4-10.6.1-18.1 6.6-20.8 9.4z"/><path fill="#E2D7C7" d="M32.8 21.5c0 3.7-3 6.6-6.6 6.6-3.7 0-6.6-3-6.6-6.6 0-3.7 3-6.6 6.6-6.6 3.6-.1 6.6 2.9 6.6 6.6zM49.6 13.6c-.5 0-1.1-.2-1.5-.6-.1-.1-8.6-9-22-9-13.5 0-21.9 8.9-22 9-.7.8-2 .9-2.8.1-.8-.7-.9-2-.1-2.8C1.6 9.9 10.9 0 26.1 0 41.4 0 50.7 9.8 51 10.3c.7.8.7 2.1-.1 2.8-.3.3-.8.5-1.3.5zM42.8 56.5c-1.6 0-3.5-.3-5.6-1-13.4-4.6-13.5-22-13.5-22.7 0-1.1.9-2 2-2s2 .9 2 2c0 .2.2 15.3 10.8 18.9 4.1 1.4 7.6.9 10-1.4 2.4-2.3 3.2-5.8 2.6-7.9-.5-1.9-1.9-3.3-3.8-3.8-1.9-.6-4-.2-5.5 1.1-1.5 1.2-1.7 3.1-1 4.2.7 1.2 2.4 1.4 4.6.5 1-.4 2.2.1 2.6 1.1.4 1-.1 2.2-1.1 2.6-4.9 2-8.1.2-9.5-2.2-1.8-2.9-.9-6.9 1.9-9.3 2.6-2.1 6-2.8 9.2-1.8 3.1 1 5.6 3.4 6.5 6.5 1.1 3.8-.4 8.8-3.6 11.9-1.6 1.4-4.4 3.3-8.6 3.3z"/><path fill="#E2D7C7" d="m22.8 32.6-2.2 7 3.3 10.2c.1.2.3.4.6.4s.6-.3.6-.6V32.8l-2.3-.2zM47.4 19.1s7.9 1.1 14.5-2.1c0 0-3.3 6.5-14.5 6.8l2.2-2.4-2.2-2.3z"/></svg>