<svg xmlns="http://www.w3.org/2000/svg" width="45.1" height="65.1" xml:space="preserve"><path fill="#E2D7C7" d="M31 65.1H14.3c-2.6 0-4.8-2.1-4.8-4.8v-3.6c0-2.8-.8-5.6-2.2-8l-5-8.4C.8 37.8 0 34.8 0 31.9c0-8.7 7-15.7 15.6-15.8v-5.2c0-1.5-1.2-2.7-2.7-2.7H4.2V0h36.7v8.2h-8.7c-1.5 0-2.7 1.2-2.7 2.7v5.2c8.6.1 15.6 7.1 15.6 15.8 0 3-.8 5.9-2.3 8.4l-5 8.4c-1.4 2.4-2.2 5.2-2.2 8v3.6c.2 2.6-2 4.8-4.6 4.8zM8.1 4.4h4.8c3.6 0 6.5 2.9 6.5 6.5v5.4c0 2-1.6 3.7-3.6 3.7-6.6 0-12 5.4-12 12 0 2.3.6 4.5 1.8 6.5l5 8.4c1.8 3 2.8 6.5 2.8 10v3.6c0 .5.4 1 .9 1H31c.5 0 1-.4 1-1v-3.6c0-3.5.9-7 2.7-10l5-8.4c1.2-2 1.8-4.2 1.8-6.5 0-6.6-5.4-12-12-12-2 0-3.6-1.6-3.6-3.7v-5.4c0-3.6 2.9-6.5 6.5-6.5h4.8v-.6h-29v.6h-.1z"/></svg>