<svg xmlns="http://www.w3.org/2000/svg" width="61.2" height="62.7" xml:space="preserve"><path fill="#E2D7C7" d="M42.3 16.5 37 1.4c-.6-1.8-3.1-1.8-3.8-.1l-5.3 13.2-12.7 2.8c-2.6.6-4.6 2.7-5 5.3H1.7c-1.1 0-1.9 1.1-1.6 2.2l4.2 5.7c1.2 1.7 3.1 2.6 5.2 2.6h15.4v29.6h36.2c-.1.3 3.4-28.4-18.8-46.2zm-26.1 6.1h-3.7l6.3-3.3-2.6 3.3zm33.4 26.8c-.7 0-1.3-.6-1.3-1.3 0-8-3.6-10.1-5.3-10.6l-4.3 19.6h-6.3V25.8h1.3c2.3 0 4.1-1.8 4.1-4.1s-1.8-4.1-4.1-4.1c-.7 0-1.3-.6-1.3-1.3 0-.7.6-1.3 1.3-1.3 3.7 0 6.6 3 6.6 6.6 0 3.2-2.3 5.9-5.4 6.5v26.3h1.7l4.3-19.8h1c.1 0 8.9.2 8.9 13.3.1.9-.5 1.5-1.2 1.5z"/></svg>