<?xml version="1.0" encoding="utf-8"?>
<!-- Generator: Adobe Illustrator 18.0.0, SVG Export Plug-In . SVG Version: 6.00 Build 0)  -->
<!DOCTYPE svg PUBLIC "-//W3C//DTD SVG 1.1//EN" "http://www.w3.org/Graphics/SVG/1.1/DTD/svg11.dtd">
<svg version="1.1" id="Layer_1" xmlns="http://www.w3.org/2000/svg" xmlns:xlink="http://www.w3.org/1999/xlink" x="0px" y="0px"
	 width="1920px" height="1080px" viewBox="0 0 1920 1080" enable-background="new 0 0 1920 1080" xml:space="preserve">
<rect fill="#FDFDFE" width="1920" height="872.5"/>
<polygon fill="#FFFFFF" stroke="#F2F0EE" stroke-width="4" stroke-miterlimit="10" points="1229.4,637 1508.2,637 1368.8,482.4 "/>
<polygon fill="#FFFFFF" stroke="#F2F0EE" stroke-width="4" stroke-miterlimit="10" points="1587,421.8 1379.4,637 1785.5,637 "/>
<polygon fill="#FFFFFF" stroke="#F2F0EE" stroke-width="4" stroke-miterlimit="10" points="1737,482.4 1582.4,637 1874.2,637 "/>
<polygon fill="#F2F0EE" points="1368.8,482.4 1329.4,637 1229.4,637 "/>
<polygon fill="#F2F0EE" points="1587,421.8 1379.4,637 1533.9,637 "/>
<path fill="#FFFFFF" stroke="#F2F0EE" stroke-width="4" stroke-miterlimit="10" d="M0,639.1c0,0,187.5-34.4,260.4-61.1
	s205.5,50.1,252.5,55.9"/>
<path opacity="0.5" fill="#F2F0EE" d="M319.1,573.9c0,0,53.2,34-57.4,66.2c0,0,140.3,13.5,237-4.2
	C498.6,635.9,433.7,591.4,319.1,573.9z"/>
<polygon fill="#F2F0EE" points="1737,482.4 1582.4,637 1699.1,637 "/>
<rect y="638.1" fill="#FFFFFF" stroke="#F2F0EE" stroke-width="4" stroke-miterlimit="10" width="1920" height="438.9"/>
<path fill="#FFFFFF" stroke="#F2F0EE" stroke-width="4" stroke-miterlimit="10" d="M447.2,609.5c0,0,68.9-0.2,139.4-49.8
	s48,50.9,184.5,79.4"/>
<path opacity="0.5" fill="#F2F0EE" d="M609.2,547.7c0,0,40.6,33.1,0,61.8s-70.6,29.6-70.6,29.6l223.2-2.1c0,0-52.5,1.7-124.3-83.6
	C637.5,553.4,631.7,535.7,609.2,547.7z"/>
<path fill="#F2F0EE" d="M85.8,619.6c0,0,32.9-40.6,24.4-88.6h-9c0,0,11.5,46.5-30.5,93.3"/>
<path fill="#F2F0EE" d="M104.6,527.8c0,0,12.5-44.4,68.7-24.3c0,0-58.6,9.2-62.6,46.5"/>
<path fill="#F2F0EE" d="M104.6,550c18-19.4,68.7-16.6,68.7-16.6c-20.8-24.3-59-6.2-59-6.2"/>
<path fill="#F2F0EE" d="M104.6,545c20.8-11.3,51.3,16.8,51.3,16.8C139,523,115,531.3,115,531.3"/>
<path fill="#F2F0EE" d="M110.7,518.9c0,0-7-29-48.9-26.5c0,0,29.4,13.8,39.1,38"/>
<path fill="#F2F0EE" d="M99.8,524.2c0,0-8.3-14.8-45.8-3.5c0,0,29.8,1.4,50.6,14.7"/>
<path fill="#F2F0EE" d="M107.1,533.9c0,0-19-13.4-49,12.3c0,0,26.1-9.1,49-3.5"/>
<path fill="#F2F0EE" d="M81.7,618.4c0,0,3.9-25.3-11.5-43.5l-3.8,2.2c0,0,16.3,16.9,10.1,47"/>
<path fill="#F2F0EE" d="M67,574.9c0,0-5.7-21.9,23.1-27.2c0,0-22.6,18.3-15.1,35.1"/>
<path fill="#F2F0EE" d="M72.5,584.3c2.8-12.7,25-24,25-24C82.7,555.2,71,572.3,71,572.3"/>
<path fill="#F2F0EE" d="M71.3,582.2c6-9.9,25.9-5.5,25.9-5.5c-16.8-12.3-24.9-2.8-24.9-2.8"/>
<path fill="#F2F0EE" d="M68.7,571.9c0,0-9.9-10.3-26.6,0.8c0,0,15.5-1.4,25.3,6.3"/>
<path fill="#F2F0EE" d="M64.1,574.6c0,0-7.2-4.2-20.2,9.8c0,0,13-6.8,25.1-6.3"/>
<path fill="#F2F0EE" d="M69.6,576.9c0,0-11.3-1-17.7,17.3c0,0,8.8-10.3,19.9-13.6"/>
<path fill="#F2F0EE" d="M182.9,596c0,0,5.4,1.9,4.3,4.5s-4.3,3.7-8.5,1.9c0,0-4.4,13.8-11.6,12.1c-7.2-1.6-5.9-6.4-5.9-6.4
	s-1.1,6.3,1.8,8.6s3.5,4.2,2.1,10s-0.9,8.2-0.9,8.2s-4.2,0.4-4.2,0s5-13.1,1.1-17.2c-3.9-4-4.8,4.3-5,11.2s0,8.1,0,8.1h-2.7
	c0,0,1.1-17.7-0.6-21.6s-9.2,0.6-12.5-2.4c0,0-1.8,11.1,0,13c1.8,1.9,8.5,11,8,11s-3.3,0-3.3,0s-6.9-6.1-8.2-10.6s0-12.8,0-12.8
	s-6.7,7.7-9.2,11c0,0,0.6,12.5,0,12.4c-0.6-0.1-3,0-3,0v-15.9l6.4-9.1c0,0-3.9-8.7,3-12.9c0,0-0.6-8.6,3.4-8.5
	c4,0.1,8.5,5.7,9.8,5.2c1.4-0.5,2.7-6.9,7.1-6.8c4.4,0.1,5.2,5.7,6.8,8.7s4.7,8,7.6,5.8s2.5-6.3,7.7-8.5
	C181.6,592.9,182.9,596,182.9,596z"/>
<path opacity="0.25" fill="#F2F0EE" d="M7,1071l416.4,1.3c191.7-9.5,409.3-33.7,493.6-93.3c164-116-217.8-90.9-145.9-121.4
	C835,830.4,979,799,1548.8,762.8c-315.4,3.1-745.4,15.9-929.8,60.2c-308,74-11,62,122,108S7,1071,7,1071z"/>
<ellipse opacity="0.25" fill="#F2F0EE" cx="280" cy="756" rx="69" ry="19"/>
<path opacity="0.25" fill="#F2F0EE" d="M1368.8,857.6c0,0-285.8,56.6-157.8,60s268-12.6,202,9.4s-43.6,80,95.2,68s104.8-18,12.8-30
	s181.9-40,66-62s-366,16-262-10S1528.6,830.1,1368.8,857.6z"/>
</svg>
