<?xml version="1.0" encoding="utf-8"?>
<!-- Generator: Adobe Illustrator 18.0.0, SVG Export Plug-In . SVG Version: 6.00 Build 0)  -->
<!DOCTYPE svg PUBLIC "-//W3C//DTD SVG 1.1//EN" "http://www.w3.org/Graphics/SVG/1.1/DTD/svg11.dtd">
<svg version="1.1" id="Layer_1" xmlns="http://www.w3.org/2000/svg" xmlns:xlink="http://www.w3.org/1999/xlink" x="0px" y="0px"
	 width="32px" height="32px" viewBox="0 0 32 32" enable-background="new 0 0 32 32" xml:space="preserve">
<path fill="#876659" stroke="#342F2D" stroke-width="0.6658" stroke-miterlimit="10" d="M5.2,16.2c0,0,2,0.7,3-2.8s1.4-6.8,3.3-6.5
	c1.9,0.3,3.3,0.9,6,0.7s4.8-1.3,5.6,0.7c0.8,2,0.7,6.8,1.5,8.4c0.8,1.5,2.5,2.7,2.5,2.7L5.2,16.2z"/>
<path fill="#876659" stroke="#342F2D" stroke-width="0.8877" stroke-miterlimit="10" d="M0.2,15.5c0,0,2.8,9.2,13.7,10.9
	c6.1,0.9,12.1-2.2,15.3-5.6c3-3.3,3.4-7,1.1-6.3c-1.8,0.6-3.4,1.2-4.6,1.2c-4,0-4.3,2.8-8.3,2.8c-5.2-0.1-10.3-3.1-10.3-3.1
	s-1.7-0.1-3.6-0.8C1.7,13.8,0.3,14.2,0.2,15.5z"/>
<path fill="#40322B" stroke="#1A1A19" stroke-width="0.6658" stroke-linejoin="round" stroke-miterlimit="10" d="M6.7,15.2
	c0,0,2.4,4.5,8.8,4.5s9.8-3.8,9.8-3.8c-0.6-0.6-1.2-1.4-1.3-2.3c0,0-4.8,3.5-8.7,3.1C9.6,16.1,8,13,8,13S7.7,15.3,6.7,15.2z"/>
<path opacity="0.75" fill="#232323" d="M21.3,8.9c0,0-0.5,0.6-3.4,1.1c-3,0.4-4.1-0.6-4.1-0.6c-1.4-0.4-2.6-1.6-3.1-2.3
	C9.4,7.8,9,10.5,8.2,13.3c-0.3,1-0.7,1.7-1,2.1c-0.3-0.2-0.5-0.3-0.5-0.3s-1.1,0.1-3-0.7c-0.9-0.3-1.8-0.4-2.5-0.3
	c-0.5,0.2-0.9,0.6-0.9,1.2c0,0,0,0,0,0c0,0,0,0,0,0c0,0,0,0,0,0c0.1,0.2,0.5,1,1.2,2c0,0,0,0,0,0c0.2,0.3,0.4,0.6,0.6,0.9
	c0,0,3.2,0.2,5.8-0.7c2.6-0.9,2.9-2.5,4.4-4.7c0.3-0.4,0.5-1,0.7-1.6C21,10.9,21.3,8.9,21.3,8.9z"/>
</svg>
